<?xml version="1.0" encoding="utf-8"?>
<!-- Generator: Adobe Illustrator 22.0.1, SVG Export Plug-In . SVG Version: 6.00 Build 0)  -->
<svg version="1.1" id="图层_1" xmlns="http://www.w3.org/2000/svg" xmlns:xlink="http://www.w3.org/1999/xlink" x="0px" y="0px"
	 width="232px" height="442.4px" viewBox="0 0 232 442.4" style="enable-background:new 0 0 232 442.4;" xml:space="preserve">
<style type="text/css">
	.st0{fill:#FFFFFF;}
	.st1{fill:url(#path-2_2_);}
	.st2{enable-background:new    ;}
	.st3{fill:#C63E37;}
	.st4{fill:#CC984E;}
	.st5{font-family:'PingFangSC-Regular-GBpc-EUC-H';}
	.st6{font-size:12px;}
	.st7{fill:#FF461C;}
	.st8{fill:#FFC81A;}
</style>
<g id="分享金-ver-1.1_7_">
	<g id="导航">
		<path id="路径" d="M5.3,62.1L5.3,62.1C5.1,62.1,5,62,5,61.8l-0.6-4.2L0.2,57c-0.1,0-0.2-0.1-0.3-0.3c0-0.1,0.1-0.3,0.2-0.3l9-4
			c0.1,0,0.2,0,0.3,0.1s0.1,0.2,0.1,0.3l-4,9C5.5,62,5.4,62.1,5.3,62.1z"/>
	</g>
</g>
<g id="分享金-ver-1.1_6_">
	<path id="形状结合备份" class="st0" d="M44.1,17H2c-1.1,0-2-0.9-2-2V2c0-1.1,0.9-2,2-2h42.1C44,0.2,44,0.3,44,0.5
		C44,1.9,45.1,3,46.5,3S49,1.9,49,0.5c0-0.2,0-0.3-0.1-0.5H62c1.1,0,2,0.9,2,2v13c0,1.1-0.9,2-2,2H48.9c-0.2-1.1-1.2-2-2.4-2
		S44.3,15.9,44.1,17z"/>
</g>
<g id="分享金-ver-1.1_4_">
	<g id="矩形">
		<g>
			<polygon id="path-2_12_" points="0,332.9 232,332.9 232,357.9 124.6,357.9 116.6,366.9 107.4,357.9 0,357.9 			"/>
		</g>
		<g>
			
				<linearGradient id="path-2_2_" gradientUnits="userSpaceOnUse" x1="-1496.5344" y1="234.8778" x2="-1497.5344" y2="234.8778" gradientTransform="matrix(232 0 0 34 347428 -7635.9453)">
				<stop  offset="0" style="stop-color:#E7483C"/>
				<stop  offset="0.5164" style="stop-color:#FD786E"/>
				<stop  offset="1" style="stop-color:#DE4538"/>
			</linearGradient>
			<polygon id="path-2_1_" class="st1" points="0,332.9 232,332.9 232,357.9 124.6,357.9 116.6,366.9 107.4,357.9 0,357.9 			"/>
		</g>
	</g>
</g>
<g id="分享金-ver-1.1_3_">
	<g id="编组-6备份" transform="translate(-1.000000, -1.000000)">
		<g class="st2">
			<path class="st3" d="M40.1,294.2v-2.9h9v-0.8h3.8v0.8h8.7v2.9h-2.1l-1,1.9h2.6v13.5c0.2,1.9-0.5,2.8-2.3,2.5h-2v-2.6h0.4
				c0.4,0.1,0.5-0.1,0.5-0.5v-10.3h-2.5v1c-0.1,0.3,0.1,0.4,0.5,0.4h1.3v2.6h-3.4c-1.4,0.2-1.9-0.4-1.7-1.9v-2.2h-2v1.7
				c0.2,1.9-0.4,2.8-1.8,2.4h-3.2v-2.5h1.2c0.3,0,0.5-0.2,0.5-0.5v-1.1h-2.4v13.5h-3.7v-16.1h3l-0.9-1.9H40.1z M54.5,311.3h-9.5
				v-7.6h11.5v5.5C56.7,310.8,56,311.4,54.5,311.3z M54.3,296.1l1.2-1.9h-8.7l0.9,1.9H54.3z M53.3,308.1v-1.7h-4.9v2.2h4.3
				C53.1,308.7,53.3,308.5,53.3,308.1z"/>
			<path class="st3" d="M73.4,291.5v-0.8h3.6v0.8h9l-0.7,3.6H82v-0.8H67.8v0.8h-3.5v-3.5H73.4z M85.7,295.6v2.6H72.8l-0.6,1h6.4
				v10.7c0,1.5-0.7,2.2-2,2.2h-4v-2.3h1.9c0.5,0.1,0.8-0.2,0.8-0.7v-7.3h-4.3c-0.4,0.5-1,0.7-2,0.6h-4.7v-2.6h3
				c0.4,0.1,0.8-0.1,1-0.5l0.7-1h-4.5v-2.6H85.7z M64.3,304.6h3.3c0.3,0.1,0.7-0.1,1.2-0.6l1.2-1.1h3.6l-3.7,3.9
				c-0.3,0.4-0.8,0.6-1.8,0.6h-3.8V304.6z M64.3,309.8h3c0.6,0.1,1.1-0.1,1.4-0.6l1.8-1.8h3.5l-3.3,3.9c-0.5,0.5-1.2,0.8-2.1,0.8
				h-4.3V309.8z M79.3,300.6h1.3c0.5,0.1,0.8-0.1,1-0.5l0.8-1h3.1l-2.1,3.5c-0.2,0.5-0.8,0.7-1.7,0.7h-2.4V300.6z M85.8,312.1h-3.4
				c-1.4,0.1-2.1-0.6-2.1-2.1l-0.7-5.7h3.1l0.7,4.7c0,0.5,0.2,0.7,0.7,0.6h1.7V312.1z"/>
			<path class="st3" d="M90.1,300.6h-2v-2.8h5.1v11.3c0,0.4,0.2,0.7,0.6,0.7h1v2.4h-3.2c-1.1,0.1-1.6-0.7-1.5-2.2V300.6z
				 M94.4,290.9v3.1h-6.1v-3.1H94.4z M100.7,294.9h-5V292h1.1l-0.5-1.1h3.7l0.5,1.1h3.9l0.6-1.1h3.6l-0.5,1.1h1.1v2.9h-5.1v4.3h5
				v2.9h-5v5.1h5v2.8h-5v2.2h-3.5V310h-5v-2.8h5v-5.1h-5v-2.9h5V294.9z"/>
			<path class="st3" d="M116.4,294.5v-3.8h3.3v3.8h0.8v2.5h-0.8v15.1h-3.3V297h-0.8v14.2h-3.3v-19.7h3.4v2.9H116.4z M120.9,294v-2.6
				h4.3v-0.7h3.5v0.7h4.6v2.6h-4.4v0.6h4.4v2.4h-4.5v0.8h4.8v2.3h-13v-2.3h4.7V297h-4.3v-2.4h4.3V294H120.9z M120.7,312.1v-11.2
				h12.5v8.7c0.1,1.7-0.6,2.6-2.2,2.4h-3.7v-2.2h2c0.2,0,0.4-0.1,0.4-0.3v-0.2h-5.6v2.6H120.7z M129.7,303.3h-5.6v0.7h5.6V303.3z
				 M124.1,306.4v0.7h5.6v-0.7H124.1z"/>
		</g>
		<g id="编组-3备份" transform="translate(0.000000, 7.000000)">
			<g id="矩形_8_">
				<path class="st4" d="M21.9,290.5L21.9,290.5c0.8-0.4,1.6,0,2,0.7l3.4,7.3c0.4,0.8,0,1.6-0.7,2l0,0c-0.8,0.4-1.6,0-2-0.7
					l-3.4-7.3C20.8,291.7,21.1,290.8,21.9,290.5z"/>
			</g>
			<g id="矩形_7_">
				<path class="st4" d="M11.9,290.5L11.9,290.5c0.8-0.4,1.6,0,2,0.7l3.4,7.3c0.4,0.8,0,1.6-0.7,2l0,0c-0.8,0.4-1.6,0-2-0.7
					l-3.4-7.3C10.8,291.7,11.1,290.8,11.9,290.5z"/>
			</g>
			<g id="矩形_2_">
				<path class="st4" d="M1.9,290.5L1.9,290.5c0.8-0.4,1.6,0,2,0.7l3.4,7.3c0.4,0.8,0,1.6-0.7,2l0,0c-0.8,0.4-1.6,0-2-0.7l-3.4-7.3
					C0.8,291.7,1.1,290.8,1.9,290.5z"/>
			</g>
		</g>
		
			<g id="编组-3备份-2" transform="translate(159.500000, 13.500000) scale(-1, 1) translate(-159.500000, -13.500000) translate(145.000000, 7.000000)">
			<g id="矩形_3_">
				<path class="st4" d="M22.5,290.5L22.5,290.5c0.8-0.4,1.6,0,2,0.7l3.4,7.3c0.4,0.8,0,1.6-0.7,2l0,0c-0.8,0.4-1.6,0-2-0.7
					l-3.4-7.3C21.4,291.7,21.7,290.8,22.5,290.5z"/>
			</g>
			<g id="矩形_4_">
				<path class="st4" d="M12.5,290.5L12.5,290.5c0.8-0.4,1.6,0,2,0.7l3.4,7.3c0.4,0.8,0,1.6-0.7,2l0,0c-0.8,0.4-1.6,0-2-0.7
					l-3.4-7.3C11.4,291.7,11.7,290.8,12.5,290.5z"/>
			</g>
			<g id="矩形_5_">
				<path class="st4" d="M2.5,290.5L2.5,290.5c0.8-0.4,1.6,0,2,0.7l3.4,7.3c0.4,0.8,0,1.6-0.7,2l0,0c-0.8,0.4-1.6,0-2-0.7l-3.4-7.3
					C1.4,291.7,1.7,290.8,2.5,290.5z"/>
			</g>
		</g>
	</g>
</g>
<g id="分享金-ver-1.1_2_">
	<g id="编组-7备份" transform="translate(0.000000, -3.000000)">
		<text transform="matrix(1 0 0 1 0 112.7156)" class="st0 st5 st6">查看详情</text>
		
			<g id="更多" transform="translate(56.000000, 9.000000) scale(-1, 1) rotate(90.000000) translate(-56.000000, -9.000000) translate(52.000000, 5.000000)">
			<path id="路径_2_" class="st0" d="M100,0.9L100,0.9c0-0.2,0.2-0.4,0.4-0.4c0.1,0,0.2,0,0.3,0.1l3,3l2.9-2.9l0,0
				c0.2-0.2,0.5-0.2,0.6,0c0.2,0.2,0.2,0.5,0,0.6l-3,3l0,0c-0.3,0.3-0.8,0.3-1.1,0l-3-3l0,0C100,1.1,100,1,100,0.9L100,0.9z"/>
			<path id="路径_1_" class="st0" d="M100,4L100,4c0-0.2,0.2-0.4,0.4-0.4c0.1,0,0.2,0,0.3,0.1l3,2.9l2.9-2.9l0,0
				c0.2-0.2,0.5-0.2,0.6,0c0.2,0.2,0.2,0.5,0,0.6l-3,3l0,0c-0.3,0.3-0.8,0.3-1.1,0l0,0l-3-3l0,0C100,4.2,100,4.1,100,4L100,4z"/>
		</g>
		<rect id="矩形_6_" x="1" y="114.7" class="st0" width="59" height="1"/>
	</g>
</g>
<g id="分享金-ver-1.1_8_">
	<g id="_x31_0.21-商家详情页备份" transform="translate(-155.000000, -429.000000)">
		<g id="电--话" transform="translate(155.000000, 429.000000)">
			<path id="路径_3_" d="M4.7,396.2c0,0,0.2-0.1,0.3-0.2c0.1-0.1,0.2-0.1,0.3-0.1c0.6-0.3,1.1-0.1,1.7,0.7
				c0.4,0.5,0.5,0.9,0.4,1.3c-0.1,0.3-0.3,0.5-0.8,0.7l-0.3,0.2c-1,0.6-3.1-0.8-4.7-3.1c-1.6-2.4-2-4.9-1-5.5l0.1-0.1l0.1-0.1
				c0.5-0.3,0.8-0.5,1.2-0.4s0.7,0.3,0.9,0.9c0.6,1.1,0.4,1.6-0.3,2.1c-0.1,0-0.2,0.1-0.3,0.2c-0.2,0.1,0.1,0.9,0.8,1.9
				C3.9,395.7,4.5,396.3,4.7,396.2L4.7,396.2z"/>
		</g>
	</g>
</g>
<g id="分享金-ver-1.1_11_">
	<g id="优惠券备份">
		<path id="形状_5_" class="st7" d="M0,246.5c0-0.5,0.1-0.9,0.3-1.1c0.2-0.2,0.5-0.3,1.1-0.3H5v14.7H3.4c-0.4,0-0.8,0-1.2,0
			s-0.7,0-0.8,0c-0.5,0-0.9-0.1-1.1-0.3c-0.2-0.2-0.3-0.6-0.3-1.1v-4.2c0-0.2,0-0.4,0.1-0.5s0.2-0.2,0.4-0.2c0.1,0,0.2,0,0.3-0.1
			s0.3-0.2,0.4-0.3c0.1-0.1,0.2-0.3,0.3-0.5c0.1-0.2,0.1-0.5,0.1-0.7c0-0.4-0.1-0.8-0.3-1.1s-0.5-0.4-0.7-0.4s-0.4-0.1-0.4-0.2
			C0,250,0,249.8,0,249.6V246.5L0,246.5z M21.5,249.7L21.5,249.7c-0.2,0-0.4,0.2-0.5,0.3l0,0c-0.1,0.2-0.2,0.3-0.2,0.5
			s0,0.4,0.1,0.5c0.1,0.2,0.3,0.3,0.5,0.4c0.2,0.1,0.3,0.2,0.4,0.4s0.1,0.3,0.2,0.5c0,0.2,0,0.3-0.1,0.5s-0.2,0.3-0.3,0.4
			c-0.5,0.2-0.7,0.5-0.7,0.9c0,0.3,0.2,0.6,0.5,0.8c0.2,0.1,0.3,0.2,0.4,0.4s0.2,0.3,0.2,0.5s0,0.4-0.1,0.5
			c-0.1,0.2-0.2,0.2-0.4,0.3c-0.2,0.1-0.4,0.2-0.5,0.3c-0.1,0.2-0.2,0.3-0.2,0.5s0,0.4,0.1,0.5c0.1,0.2,0.3,0.3,0.5,0.4l0,0
			c0.1,0.1,0.3,0.2,0.3,0.4c0.1,0.2,0.1,0.3,0.1,0.5s-0.1,0.3-0.2,0.4l0,0c-0.1,0.1-0.2,0.2-0.4,0.2H6.6v-14.7h14.8
			c0.1,0,0.3,0.1,0.4,0.2c0.1,0.1,0.1,0.3,0.1,0.4c0,0.2,0,0.3-0.1,0.5s-0.2,0.3-0.4,0.3c-0.2,0.1-0.3,0.2-0.4,0.3l0,0
			c-0.1,0.1-0.2,0.3-0.2,0.5s0,0.3,0.1,0.5s0.3,0.3,0.5,0.4c0.2,0.1,0.3,0.2,0.4,0.4s0.2,0.3,0.2,0.5s0,0.3-0.1,0.5
			C21.8,249.5,21.7,249.6,21.5,249.7L21.5,249.7z M14.7,251.6L14.7,251.6c-0.1,0-0.2,0-0.3,0s-0.1-0.1-0.1-0.2c0,0,0.1-0.2,0.3-0.4
			c0.2-0.3,0.3-0.5,0.5-0.7c0.2-0.3,0.4-0.5,0.5-0.7c0.2-0.2,0.3-0.4,0.3-0.4c0.1-0.2,0-0.3-0.2-0.6c0,0-0.1-0.1-0.2-0.2l0,0
			c-0.1-0.1-0.2-0.1-0.3-0.2c-0.2-0.1-0.3-0.1-0.3,0c-0.1,0-0.1,0.1-0.2,0.3c0,0.1-0.1,0.2-0.3,0.4c-0.1,0.2-0.3,0.5-0.5,0.7
			c-0.2,0.3-0.3,0.5-0.5,0.7c-0.1,0.2-0.2,0.3-0.2,0.4c0,0.1-0.1,0.1-0.2,0.1c-0.1,0-0.2-0.1-0.2-0.1l0,0c-0.1-0.1-0.2-0.2-0.3-0.3
			l0,0c-0.2-0.2-0.3-0.4-0.5-0.6c-0.2-0.2-0.3-0.5-0.5-0.7l0,0c-0.1-0.1-0.2-0.3-0.3-0.4c-0.2-0.3-0.3-0.4-0.5-0.3l0,0
			c-0.1,0.1-0.2,0.2-0.4,0.2l0,0c-0.1,0.1-0.2,0.2-0.3,0.2c-0.2,0.1-0.2,0.3-0.1,0.5c0.3,0.4,0.6,0.8,0.8,1.1s0.4,0.5,0.6,0.8
			c0.2,0.2,0.3,0.4,0.3,0.4c0,0.1,0,0.1-0.1,0.1h-0.3c-0.1,0-0.2,0-0.4,0l0,0c-0.2,0-0.3,0-0.5,0c-0.1,0-0.3,0-0.4,0.1l0,0
			c-0.1,0.1-0.1,0.2-0.1,0.3s0,0.2,0,0.4v0.4c0,0.1,0,0.1,0.1,0.2c0.1,0,0.1,0,0.2,0H12c0.2,0,0.3,0,0.3,0.1v0.6
			c0,0.1,0,0.1-0.1,0.1h-1.9c-0.1,0-0.2,0-0.2,0.1l0,0c0,0.1-0.1,0.2-0.1,0.3s0,0.2,0,0.3s0,0.2,0,0.2c0,0.3,0.1,0.4,0.4,0.4h1.7
			c0.1,0,0.2,0,0.2,0s0,0.1,0,0.2c0,0.1,0,0.3,0,0.5c0,0.3,0,0.4,0,0.5c0,0.2,0.1,0.3,0.4,0.3h0.9c0.1,0,0.2,0,0.2-0.2v-1.2
			c0-0.2,0.1-0.3,0.2-0.3h0.3c0.1,0,0.3,0,0.4,0c0.2,0,0.3,0,0.5,0h0.4c0.3,0,0.4-0.1,0.4-0.3V254c0-0.2-0.1-0.3-0.3-0.3h-1.6
			c-0.2,0-0.3,0-0.3-0.1s0-0.1,0-0.2l0,0c0-0.1,0-0.2,0-0.2c0-0.1,0-0.1,0.1-0.2l0,0c0.1,0,0.1-0.1,0.2-0.1h1.7
			c0.2,0,0.3-0.1,0.3-0.2V252c0-0.1,0-0.2-0.1-0.2l0,0c-0.1-0.1-0.1-0.1-0.2-0.1L14.7,251.6L14.7,251.6z"/>
	</g>
</g>
<g id="分享金-ver-1.1_10_">
	<g id="存钱罐备份">
		<path id="形状_4_" class="st7" d="M20.7,154.5H20c-0.4-2.4-1.9-4.4-4-5.7c-0.8,1.1-2.1,1.8-3.5,1.8c-1.9,0-3.6-1.3-4.2-3L6,146
			c-0.3-0.2-0.5-0.1-0.6,0.3l-0.3,3.2c-1.2,0.9-2.1,2-2.6,3.3H1c-0.6,0-1,0.5-1,1v3.2c0,0.6,0.5,1.1,1,1.1h1.2
			c0.6,1.9,1.9,3.4,3.7,4.5v2c0,0.3,0.2,0.5,0.5,0.5h2.3c0.3,0,0.5-0.2,0.5-0.5v-0.8c0.6,0.1,1.2,0.2,1.8,0.2s1.2-0.1,1.8-0.2v0.8
			c0,0.3,0.2,0.5,0.5,0.5h2.3c0.3,0,0.5-0.2,0.5-0.5v-2c2.2-1.3,3.7-3.5,4-6h0.7c0.6,0,1-0.5,1-1.1S21.2,154.5,20.7,154.5z
			 M6.1,153.6c-0.6,0-1.2-0.4-1.3-1c0.2,0.2,0.5,0.4,0.8,0.4c0.5,0,1-0.4,1-1c0-0.5-0.4-1-1-1H5.5c0.2-0.1,0.4-0.2,0.7-0.2
			c0.8,0,1.4,0.6,1.4,1.4C7.5,153,6.9,153.6,6.1,153.6L6.1,153.6z"/>
		<path id="形状_3_" class="st8" d="M12.4,143.1c-1.7,0-3.2,1.4-3.2,3.2c0,1.7,1.4,3.2,3.2,3.2s3.2-1.4,3.2-3.2
			C15.5,144.5,14.1,143.1,12.4,143.1z M12.6,147.8v0.5H12v-0.5c-0.4,0-0.8-0.1-1-0.2l0.2-0.7c0.3,0.1,0.6,0.2,1,0.2
			c0.3,0,0.5-0.1,0.5-0.2c0-0.2-0.2-0.3-0.6-0.4c-0.6-0.2-1.1-0.5-1.1-1s0.4-0.9,1-1V144h0.6v0.4c0.4,0,0.7,0.1,0.9,0.2l-0.2,0.7
			c-0.2-0.1-0.4-0.2-0.9-0.2c-0.3,0-0.4,0.1-0.4,0.2c0,0.1,0.2,0.2,0.7,0.4c0.7,0.2,1,0.5,1,1C13.7,147.3,13.3,147.7,12.6,147.8z"/>
	</g>
</g>
<g id="分享金-ver-1.1_9_">
	<g id="首页备份">
		<path id="路径_5_" class="st7" d="M17.6,202.2l-6.2-6.2c-1.2-1.2-3.1-1.2-4.3,0l-6.2,6.2c-0.6,0.6-0.9,1.3-0.9,2.2
			c0,0.4,0.1,0.9,0.3,1.2l0,0c0,0,0.1,0.1,0.1,0l0,0l4.2-4.2l4-4l0,0c0.2-0.2,0.4-0.3,0.7-0.3s0.5,0.1,0.7,0.3l4,4l4.2,4.2l0,0h0.1
			l0,0l0,0c0.2-0.4,0.3-0.8,0.3-1.2C18.5,203.5,18.2,202.8,17.6,202.2L17.6,202.2z"/>
		<path id="路径_4_" class="st7" d="M9.5,198.4L9.5,198.4c-0.1-0.1-0.4-0.1-0.5,0l0,0l-6.5,6.5l0,0c-0.1,0.1-0.2,0.3-0.2,0.4v5
			c0,1.2,0.9,2.1,2.1,2.1h2.2l0,0c0.2,0,0.4-0.2,0.4-0.4l0,0v-4.8c0-0.2,0.3-0.4,0.5-0.4h3.3c0.2,0,0.5,0.1,0.5,0.4v4.8
			c0,0.2,0.2,0.4,0.4,0.4H14c1.2,0,2.1-0.9,2.1-2.1v-5l0,0c0-0.2-0.1-0.3-0.2-0.4L9.5,198.4L9.5,198.4z"/>
	</g>
</g>
<g id="分享金-ver-1.1">
	<g id="编组-4备份" transform="translate(-1.000000, -1.000000)">
		<g class="st2">
			<path class="st3" d="M53.5,425.9h-0.8v-2.6h3.9v12.7c0.1,1.2,1.2,1.8,3.4,2h13v2.4H59.2c-1.1-0.1-2.1-0.5-3.2-1.3
				c-0.1,0-0.1,0-0.2,0.1c-0.9,0.9-1.8,1.3-2.4,1.3h-0.8v-2.7c0.5,0,0.8-0.4,0.8-1.1V425.9z M56.7,422.3h-3.3v-3.8h3.3V422.3z
				 M71.4,418.6h2.7v1.4c-0.1,1.3-0.5,2-1.2,2.1H61.1v12.4c-0.1,1.5-1.1,2.2-3.1,2.2h-0.8v-2.5c0.6,0.1,0.9-0.3,0.9-1.1v-13.6h12.3
				C71.1,419.6,71.4,419.3,71.4,418.6z M67.6,429.2l2.1-3h-7.8v-2.4H74v2.3l-4.3,5.6l1.5,1.6c0.4,0.5,0.7,0.7,1,0.7h1.7v2.7h-2.7
				c-0.8,0-1.4-0.3-1.9-0.8l-1.6-1.8l-1.4,1.6c-0.6,0.8-1.3,1.1-2.2,1h-2.5v-2.8H63c0.2,0.1,0.8-0.3,1.5-1.2l1.1-1.2l-3.6-4.1H66
				L67.6,429.2z"/>
			<path class="st3" d="M76.8,436.1v-7.9H80v9.2c0,1.2-0.7,1.9-2,2.1H76v-2.3C76.6,437.2,76.9,436.9,76.8,436.1z M76.6,420.1h8.8
				c0.4,0.1,0.7-0.2,0.8-0.8h2.7v1.5c0,1.4-0.7,2.1-2.1,2.1h-2.4v1.8h4.5v2.7h-4.7v13.1h-3.1v-13.1h-5.1v-2.7h5.2v-1.8h-4.7V420.1z
				 M85.2,437v-8.8h3.1v8.2c0,0.6,0.2,0.8,0.7,0.8v2.2l-1,0.1C86.1,439.4,85.2,438.6,85.2,437z M89.8,419.5h3.3v17.4h-3.3V419.5z
				 M94.4,419.3h3.1V438c0,1.6-0.8,2.4-2.4,2.4h-4.6v-2.3h3.8c0.1,0,0.1-0.1,0.2-0.4V419.3z"/>
			<path class="st3" d="M109.1,423.3v-4h3.7v4h8.8v2.4H113l0.8,1h7.7v2.5h-6.4c0.6,0.7,1.1,1,1.5,0.9h4.9v2.7h-6.6
				c-0.9,0.1-1.7-0.3-2.2-1l-1.9-2.4l-1.9,2.3c-0.6,0.8-1.6,1.2-2.8,1.1h-6v-2.5h4.2c0.4,0,0.8-0.1,0.9-0.3l1.1-0.8h-6.4v-2.5h8.1
				l0.8-1h-8.7v-2.4H109.1z M100.2,422.6V420h3.9c0.2,0,0.5-0.1,0.8-0.3l0.4-0.4h3.4l-1.4,2.4c-0.3,0.6-0.9,0.9-1.8,0.8H100.2z
				 M121.5,433.9v4.5c0.1,1.4-0.5,2.1-1.6,2h-9.6v-2.5h7.4c0.3,0.1,0.5-0.1,0.5-0.6v-0.8h-10.3l-1.1,2.7c-0.3,0.9-1,1.3-2,1.2h-4.6
				V438h2.7c0.2,0.1,0.4,0,0.6-0.3l0.6-1.1h-3.8v-2.6H121.5z M114.4,421.7l-0.8-2.4h3.2l0.4,0.6c0.1,0.2,0.3,0.3,0.7,0.3h3.8v2.4
				h-5.7C115,422.7,114.6,422.4,114.4,421.7z"/>
		</g>
		<g id="编组-3" transform="translate(0.000000, 7.000000)">
			<g id="矩形_13_">
				<path class="st4" d="M21.9,418.8L21.9,418.8c0.8-0.4,1.6,0,2,0.7l3.4,7.3c0.4,0.8,0,1.6-0.7,2l0,0c-0.8,0.4-1.6,0-2-0.7
					l-3.4-7.3C20.8,420.1,21.1,419.2,21.9,418.8z"/>
			</g>
			<g id="矩形_12_">
				<path class="st4" d="M11.9,418.8L11.9,418.8c0.8-0.4,1.6,0,2,0.7l3.4,7.3c0.4,0.8,0,1.6-0.7,2l0,0c-0.8,0.4-1.6,0-2-0.7
					l-3.4-7.3C10.8,420.1,11.1,419.2,11.9,418.8z"/>
			</g>
			<g id="矩形_11_">
				<path class="st4" d="M1.9,418.8L1.9,418.8c0.8-0.4,1.6,0,2,0.7l3.4,7.3c0.4,0.8,0,1.6-0.7,2l0,0c-0.8,0.4-1.6,0-2-0.7l-3.4-7.3
					C0.8,420.1,1.1,419.2,1.9,418.8z"/>
			</g>
		</g>
		
			<g id="编组-3_1_" transform="translate(159.500000, 13.500000) scale(-1, 1) translate(-159.500000, -13.500000) translate(145.000000, 7.000000)">
			<g id="矩形_10_">
				<path class="st4" d="M22.5,418.8L22.5,418.8c0.8-0.4,1.6,0,2,0.7l3.4,7.3c0.4,0.8,0,1.6-0.7,2l0,0c-0.8,0.4-1.6,0-2-0.7
					l-3.4-7.3C21.4,420.1,21.7,419.2,22.5,418.8z"/>
			</g>
			<g id="矩形_9_">
				<path class="st4" d="M12.5,418.8L12.5,418.8c0.8-0.4,1.6,0,2,0.7l3.4,7.3c0.4,0.8,0,1.6-0.7,2l0,0c-0.8,0.4-1.6,0-2-0.7
					l-3.4-7.3C11.4,420.1,11.7,419.2,12.5,418.8z"/>
			</g>
			<g id="矩形_1_">
				<path class="st4" d="M2.5,418.8L2.5,418.8c0.8-0.4,1.6,0,2,0.7l3.4,7.3c0.4,0.8,0,1.6-0.7,2l0,0c-0.8,0.4-1.6,0-2-0.7l-3.4-7.3
					C1.4,420.1,1.7,419.2,2.5,418.8z"/>
			</g>
		</g>
	</g>
</g>
</svg>
