<svg enable-background="new 0 0 289 390.2" height="390.2" viewBox="0 0 289 390.2" width="289" xml:space="preserve" xmlns="http://www.w3.org/2000/svg" xmlns:xlink="http://www.w3.org/1999/xlink"><mask id="a" height="118.8" maskUnits="userSpaceOnUse" width="201" x="65" y="262.2"><path d="m259 354.9c-.8-1-2.1-1.7-3.5-1.7-2.3 0-4.2 1.8-4.5 4h-5c-.2-2.2-2.2-4-4.5-4s-4.2 1.8-4.5 4h-5c-.2-2.2-2.2-4-4.5-4s-4.2 1.8-4.5 4h-5c-.2-2.2-2.2-4-4.5-4s-4.2 1.8-4.5 4h-5c-.2-2.2-2.2-4-4.5-4s-4.2 1.8-4.5 4h-5c-.2-2.2-2.2-4-4.5-4s-4.2 1.8-4.5 4h-5c-.2-2.2-2.2-4-4.5-4s-4.2 1.8-4.5 4h-5c-.2-2.2-2.2-4-4.5-4s-4.2 1.8-4.5 4h-5c-.2-2.2-2.2-4-4.5-4s-4.2 1.8-4.5 4h-5c-.2-2.2-2.2-4-4.5-4s-4.2 1.8-4.5 4h-5c-.2-2.2-2.2-4-4.5-4s-4.2 1.8-4.5 4h-5c-.2-2.2-2.2-4-4.5-4s-4.2 1.8-4.5 4h-5c-.2-2.2-2.2-4-4.5-4s-4.2 1.8-4.5 4h-5c-.2-2.2-2.2-4-4.5-4s-4.2 1.8-4.5 4h-5c-.2-2.2-2.2-4-4.5-4s-4.2 1.8-4.5 4h-5c-.2-2.2-2.2-4-4.5-4s-4.2 1.8-4.5 4h-5c-.2-2.2-2.2-4-4.5-4s-4.2 1.8-4.5 4h-5c-.2-2.2-2.2-4-4.5-4s-4.2 1.8-4.5 4h-5c-.2-2.2-2.2-4-4.5-4-1.4 0-2.7.7-3.5 1.7v-79.7c0-2.8 2.2-5 5-5h249c2.8 0 5 2.2 5 5z" fill="#fff"/></mask><linearGradient id="b" gradientTransform="matrix(271 0 0 -8 -44275 358.602)" gradientUnits="userSpaceOnUse" x1="163.8948" x2="163.8948" y1="33.0469" y2="34.0469"><stop offset="0" stop-color="#28c7bd" stop-opacity="0"/><stop offset="1" stop-color="#28c7bd"/></linearGradient><linearGradient id="c"><stop offset="0" stop-color="#eee"/><stop offset="1" stop-color="#d8d8d8"/></linearGradient><linearGradient id="d" gradientTransform="matrix(4 0 0 -31 -475 1882.5552)" gradientUnits="userSpaceOnUse" x1="123" x2="124" xlink:href="#c" y1="56.2848" y2="56.2848"/><linearGradient id="e" gradientTransform="matrix(4 0 0 -31 -224 1882.5552)" gradientUnits="userSpaceOnUse" x1="123" x2="124" xlink:href="#c" y1="56.2848" y2="56.2848"/><text fill="#6b3a15" font-family="'NexaScript-Free'" font-size="20" transform="translate(-.000183 17.227)">Duang</text><text fill="#6b3a15" font-family="'NexaScript-Free'" font-size="20" transform="translate(54.1392 17.227)"></text><text fill="#6b3a15" font-family="'LucidaGrande'" font-size="20" transform="translate(54.1398 17.227)">~~</text><path d="m15.4 57.2c-.2.1-.4.1-.6.1-.5 0-1-.3-1.2-.7l-.1-.2-3.9-8.5c0-.1 0-.2 0-.3 0-.4.3-.7.7-.7.1 0 .3 0 .4.1l4.5 3.3c.3.2.7.3 1.2.3.2 0 .5 0 .7-.1l21.3-9.6c-3.8-4.5-10.1-7.5-17.3-7.5-11.6 0-21.1 8-21.1 17.8 0 5.3 2.8 10.2 7.3 13.4.3.2.6.7.6 1.1 0 .1 0 .3-.1.4-.3 1.3-.9 3.5-.9 3.6s-.1.3-.1.5c-.1.5.2.8.6.8.1 0 .3 0 .4-.1l4.6-2.7c.3-.2.7-.3 1.1-.3.2 0 .4 0 .6.1 2.2.6 4.5 1 6.9 1 11.6 0 21.1-8 21.1-17.8 0-3-.9-5.8-2.4-8.3l-24.2 14.2z" fill="#fff" transform="translate(0 -1)"/><path d="m5.2 311.5h248.5c2.8 0 5 2.2 5 5v68.5c0 2.8-2.2 5-5 5h-248.5c-2.8 0-5-2.2-5-5v-68.5c0-2.8 2.3-5 5-5z" fill="#fff" stroke="#a2a2a2" stroke-width=".5"/><path d="m259 354.9c-.8-1-2.1-1.7-3.5-1.7-2.3 0-4.2 1.8-4.5 4h-5c-.2-2.2-2.2-4-4.5-4s-4.2 1.8-4.5 4h-5c-.2-2.2-2.2-4-4.5-4s-4.2 1.8-4.5 4h-5c-.2-2.2-2.2-4-4.5-4s-4.2 1.8-4.5 4h-5c-.2-2.2-2.2-4-4.5-4s-4.2 1.8-4.5 4h-5c-.2-2.2-2.2-4-4.5-4s-4.2 1.8-4.5 4h-5c-.2-2.2-2.2-4-4.5-4s-4.2 1.8-4.5 4h-5c-.2-2.2-2.2-4-4.5-4s-4.2 1.8-4.5 4h-5c-.2-2.2-2.2-4-4.5-4s-4.2 1.8-4.5 4h-5c-.2-2.2-2.2-4-4.5-4s-4.2 1.8-4.5 4h-5c-.2-2.2-2.2-4-4.5-4s-4.2 1.8-4.5 4h-5c-.2-2.2-2.2-4-4.5-4s-4.2 1.8-4.5 4h-5c-.2-2.2-2.2-4-4.5-4s-4.2 1.8-4.5 4h-5c-.2-2.2-2.2-4-4.5-4s-4.2 1.8-4.5 4h-5c-.2-2.2-2.2-4-4.5-4s-4.2 1.8-4.5 4h-5c-.2-2.2-2.2-4-4.5-4s-4.2 1.8-4.5 4h-5c-.2-2.2-2.2-4-4.5-4s-4.2 1.8-4.5 4h-5c-.2-2.2-2.2-4-4.5-4s-4.2 1.8-4.5 4h-5c-.2-2.2-2.2-4-4.5-4-1.4 0-2.7.7-3.5 1.7v-79.7c0-2.8 2.2-5 5-5h249c2.8 0 5 2.2 5 5z" fill="#d4ad90"/><path d="m266 269.2c-31.8 0-15.7-13-49.2-3.6-80.1 22.6-151.8 64.8-151.8 91.6 0 7.1-.1 24.1 11.2 23.8 72.9-1.7 76.6-15.9 189.8-15.9z" fill="#c58e68" mask="url(#a)"/><path d="m49 235.6h-39.9l-11.1 10.6v-69.4h51v3.8h4v-7.4h-59v82l16.9-16.1h42.1v-7.4h-4z" transform="translate(6 2)"/><g fill="#926c49"><path d="m49 235.6h-39.9l-11.1 10.6v-69.4h51v3.8h4v-7.4h-59v82l16.9-16.1h42.1v-7.4h-4z" transform="translate(6 2)"/><text font-family="'FZLTTHK--GBK1-0'" font-size="30" letter-spacing="8" transform="translate(30.3529 211.227)">文末有惊</text><text font-family="'FZLTTHK--GBK1-0'" font-size="30" letter-spacing="8" transform="translate(185.6471 211.227)"></text><text font-family="'FZLTTHK--GBK1-0'" font-size="30" letter-spacing="8" transform="translate(185.6471 211.227)">喜</text><text font-family="'FZLTTHK--GBK1-0'" font-size="30" letter-spacing="8" transform="translate(30.3529 211.227)">文末有惊</text><text font-family="'FZLTTHK--GBK1-0'" font-size="30" letter-spacing="8" transform="translate(185.6471 211.227)"></text><text font-family="'FZLTTHK--GBK1-0'" font-size="30" letter-spacing="8" transform="translate(185.6471 211.227)">喜</text><text font-family="'BanglaSangamMN'" font-size="14" transform="translate(29.3716 227.227)">Surprise at the end of the article</text><text font-family="'BanglaSangamMN'" font-size="14" transform="translate(29.3716 227.227)">Surprise at the end of the article</text></g><path d="m4 82.2h273c2.2 0 4 1.8 4 4 0 2.2-1.8 4-4 4h-273c-2.2 0-4-1.8-4-4 0-2.2 1.8-4 4-4z" fill="#006862"/><path d="m5 86.2h271v13h-271z" fill="#fff"/><path d="m5 86.2h271v8h-271z" fill="url(#b)" opacity=".5788"/><path d="m0 118.2h289v3c0 5.5-4.5 10-10 10h-269c-5.5 0-10-4.5-10-10zm19 8c2.2 0 4-1.8 4-4s-1.8-4-4-4-4 1.8-4 4 1.8 4 4 4zm251 0c2.2 0 4-1.8 4-4s-1.8-4-4-4-4 1.8-4 4 1.8 4 4 4z" fill="#fff"/><path d="m10 143.2h269c5.5 0 10 4.5 10 10v3h-289v-3c0-5.5 4.5-10 10-10zm9 13c2.2 0 4-1.8 4-4s-1.8-4-4-4-4 1.8-4 4 1.8 4 4 4zm251 0c2.2 0 4-1.8 4-4s-1.8-4-4-4-4 1.8-4 4 1.8 4 4 4z" fill="#fff"/><path d="m19 122.2c1.1 0 2 .9 2 2v27c0 1.1-.9 2-2 2-1.1 0-2-.9-2-2v-27c0-1.1.9-2 2-2z"/><path d="m19 122.2c1.1 0 2 .9 2 2v27c0 1.1-.9 2-2 2-1.1 0-2-.9-2-2v-27c0-1.1.9-2 2-2z" fill="url(#d)"/><path d="m270 122.2c1.1 0 2 .9 2 2v27c0 1.1-.9 2-2 2-1.1 0-2-.9-2-2v-27c0-1.1.9-2 2-2z"/><path d="m270 122.2c1.1 0 2 .9 2 2v27c0 1.1-.9 2-2 2-1.1 0-2-.9-2-2v-27c0-1.1.9-2 2-2z" fill="url(#e)"/></svg>